<svg xmlns="http://www.w3.org/2000/svg" width="216" height="120.261" viewBox="0 0 216 120.261"><g transform="translate(-915.772 171.779)"><path d="M929.015-134.094c-5.288,0-11.1-2.763-13.244-9l4.811-2a8.466,8.466,0,0,0,8.241,6.05c3.716,0,7.194-2.239,7.194-6.05,0-2.144-1.43-4.193-4.62-4.906l-1.144-.287,1.381-5.049,1.858.428c5.479,1.239,8.051,5.288,8.051,9.527C941.545-139.858,937.162-134.094,929.015-134.094Zm7.575-26.678a8.065,8.065,0,0,0-7.909-6c-3.287,0-6.289,1.954-6.289,5.479a4.825,4.825,0,0,0,3.907,4.764l1.43.334-1.382,5.049-1.286-.286a10.027,10.027,0,0,1-8.2-9.718c0-6.907,5.86-10.576,11.862-10.576,5.383,0,10.91,2.954,12.482,9.147Z" transform="translate(0 -0.003)" fill="#fff"/><path d="M970.5-134.992H948.823v-35.729H970.5v5H954.541v25.725H970.5Zm-2.335-15.34h-9.814v-5h9.814Z" transform="translate(-1.799 -0.058)" fill="#fff"/><path d="M1007.112-154.868c-.809-7.765-6.383-11.909-12.052-11.909s-11.243,4.144-12.052,11.909h-5.717c.9-11,9.385-16.911,17.863-16.911s16.769,5.907,17.674,16.911Zm5.717,3.812c-.857,11.1-9.194,17.007-17.674,17.007s-17.007-5.907-17.863-17.007h5.717c.761,7.813,6.336,12,12.052,12,5.67,0,11.291-4.192,12.052-12Z" transform="translate(-3.349)" fill="#fff"/><path d="M1033.737-134.182a14.27,14.27,0,0,1-12.814-13.911v-22.628h5.717v22.628a9.093,9.093,0,0,0,7.1,8.861Zm16.722-13.911c0,7.194-5.621,13.053-12.911,13.958v-5.1a9.05,9.05,0,0,0,7.194-8.861v-22.628h5.717Z" transform="translate(-5.725 -0.058)" fill="#fff"/><path d="M1065.184-134.992h-5.717v-35.729h5.717Zm74.222,0h-70.411v-5h70.411Z" transform="translate(-7.823 -0.058)" fill="#fff"/><path d="M1019.674-91.325H998v-35.73h21.675v5h-15.959v25.726h15.959Zm-2.334-15.34h-9.815v-5h9.815Z" transform="translate(-4.477 -2.435)" fill="#fff"/><path d="M967.222-47.659H945.547v-35.73h21.675v5H951.263v25.725h15.959ZM964.887-63h-9.814v-5h9.814Z" transform="translate(-1.621 -4.812)" fill="#fff"/><path d="M917.688-47.659v-35.73h21.676v5H923.4v30.727ZM937.029-63h-9.814v-5h9.814Z" transform="translate(-0.104 -4.812)" fill="#fff"/><path d="M986.5-46.761c-5.288,0-11.1-2.763-13.243-9l4.812-2a8.467,8.467,0,0,0,8.241,6.05c3.716,0,7.194-2.239,7.194-6.05,0-2.145-1.43-4.193-4.622-4.907l-1.143-.286,1.381-5.049,1.859.428c5.478,1.239,8.05,5.288,8.05,9.527C999.03-52.525,994.646-46.761,986.5-46.761Zm7.575-26.678a8.062,8.062,0,0,0-7.908-6c-3.287,0-6.288,1.953-6.288,5.479a4.824,4.824,0,0,0,3.906,4.764l1.429.333-1.381,5.05-1.286-.286a10.026,10.026,0,0,1-8.194-9.718c0-6.907,5.86-10.576,11.862-10.576,5.384,0,10.91,2.954,12.481,9.146Z" transform="translate(-3.13 -4.757)" fill="#fff"/><path d="M1030.059-78.386h-26.773v-5h26.773Zm-10.529,30.727h-5.716V-74.575h5.716Z" transform="translate(-4.765 -4.812)" fill="#fff"/><path d="M1041.6-47.659h-5.717v-35.73h5.717Z" transform="translate(-6.539 -4.812)" fill="#fff"/><path d="M1066.2-48.7l-5.478,1.858-14.006-35.444,5.479-1.857Zm13.863-33.586-10.1,26.3-5.479-1.858,10.1-26.3Z" transform="translate(-7.129 -4.771)" fill="#fff"/><path d="M1100.457-56.99h-9.386l-3.859,10.147-5.479-1.858,10.1-26.3,5.478,1.858-4.287,11.2h7.432Zm14.625,8.289-5.479,1.858L1095.6-82.287l5.479-1.857Z" transform="translate(-9.036 -4.771)" fill="#fff"/><path d="M1127-47.659h-5.716v-35.73H1127Zm15.959,0h-12.149v-5h12.149Z" transform="translate(-11.189 -4.812)" fill="#fff"/><g transform="translate(1018.865 -130.586)"><path d="M1038.044-90.427c-5.288,0-11.1-2.763-13.243-9l4.811-2a8.466,8.466,0,0,0,8.241,6.051c3.716,0,7.194-2.239,7.194-6.051,0-2.144-1.43-4.192-4.622-4.906l-1.142-.286,1.381-5.05,1.859.429c5.479,1.238,8.051,5.288,8.051,9.527C1050.573-96.191,1046.19-90.427,1038.044-90.427Zm7.575-26.678a8.064,8.064,0,0,0-7.909-6c-3.288,0-6.289,1.954-6.289,5.479a4.826,4.826,0,0,0,3.907,4.765l1.43.333-1.382,5.05-1.286-.287a10.024,10.024,0,0,1-8.194-9.718c0-6.907,5.86-10.576,11.862-10.576,5.383,0,10.91,2.954,12.482,9.147Z" transform="translate(-1024.801 128.206)" fill="#fff"/><path d="M1063.57-91.325h-5.718v-35.73h5.718Z" transform="translate(-1026.6 128.151)" fill="#fff"/><path d="M1104.9-102.149A17.03,17.03,0,0,1,1088.51-90.43a18.827,18.827,0,0,1-18.817-18.818,18.706,18.706,0,0,1,18.626-18.865,18.8,18.8,0,0,1,13.292,5.526l-3.763,3.764a12.918,12.918,0,0,0-9.481-4.288c-7.241,0-12.91,6.242-12.91,13.863s5.86,13.816,13.1,13.816c4.907,0,9.385-3.048,11.1-8.956Zm1.239-4.526H1088.51v-5.1h17.627Z" transform="translate(-1027.245 128.209)" fill="#fff"/><path d="M1142.566-93.294l-4.621,3-23.915-34.919,4.621-3Zm-22.343,1.905h-5.718v-22.2h5.718Zm22.153-13.529h-5.717v-22.2h5.717Z" transform="translate(-1029.659 128.214)" fill="#fff"/></g><path d="M976.354-91.325h-3.1v-5h2.383c7.908,0,11.719-6.432,11.719-12.863s-3.812-12.862-11.719-12.862h-2.383v-5h3.1c11.2,0,16.817,8.908,16.817,17.864C993.17-100.282,987.549-91.325,976.354-91.325Z" transform="translate(-3.13 -2.435)" fill="#fff"/><path d="M927.6-122.053v-5h-9.814v35.73H927.6v-5h-4.1v-25.726Z" transform="translate(-0.11 -2.435)" fill="#fff"/></g></svg>