<svg xmlns="http://www.w3.org/2000/svg" width="37" height="37" viewBox="0 0 37 37"><g transform="translate(6279 -2454)"><rect width="37" height="37" transform="translate(-6279 2454)" fill="#fff" opacity="0"/><path d="M843.543,1179.073H832.587a5.479,5.479,0,0,0-5.478,5.478v10.956a5.478,5.478,0,0,0,5.478,5.478h10.956a5.478,5.478,0,0,0,5.478-5.478v-10.956A5.478,5.478,0,0,0,843.543,1179.073Zm-4.787,15.246a4.383,4.383,0,1,1,3.691-4.979A4.382,4.382,0,0,1,838.756,1194.319Zm5.47-9.4a.92.92,0,1,1,.775-1.045A.92.92,0,0,1,844.226,1184.914Z" transform="translate(-7098.609 1282.927)" fill="#fff"/></g></svg>