<svg xmlns="http://www.w3.org/2000/svg" width="37" height="37" viewBox="0 0 37 37"><g transform="translate(6241 -2454)"><rect width="37" height="37" transform="translate(-6241 2454)" fill="#fff" opacity="0"/><g transform="translate(-6236.5 2463)"><path d="M28.511,7.586a3.524,3.524,0,0,0-2.48-2.5C23.845,4.5,15.074,4.5,15.074,4.5S6.3,4.5,4.116,5.09a3.524,3.524,0,0,0-2.48,2.5A36.97,36.97,0,0,0,1.05,14.38a36.97,36.97,0,0,0,.586,6.795,3.472,3.472,0,0,0,2.48,2.456c2.187.59,10.958.59,10.958.59s8.771,0,10.958-.59a3.472,3.472,0,0,0,2.48-2.456A36.97,36.97,0,0,0,29.1,14.38a36.97,36.97,0,0,0-.586-6.795ZM12.205,18.551V10.21l7.331,4.17-7.331,4.17Z" transform="translate(-1.05 -4.5)" fill="#fff"/></g></g></svg>