<svg xmlns="http://www.w3.org/2000/svg" width="37" height="37" viewBox="0 0 37 37"><g transform="translate(6317 -2454)"><rect width="37" height="37" transform="translate(-6317 2454)" fill="#fff" opacity="0"/><g transform="translate(-6311 2460)"><path d="M26.035,13.3A12.736,12.736,0,1,0,11.309,25.881v-8.9H8.073V13.3h3.235V10.493c0-3.192,1.9-4.955,4.811-4.955a19.6,19.6,0,0,1,2.851.249V8.919H17.364a1.841,1.841,0,0,0-2.075,1.989V13.3h3.532l-.565,3.682H15.289v8.9A12.741,12.741,0,0,0,26.035,13.3Z" transform="translate(-0.563 -0.563)" fill="#fff"/></g></g></svg>