<?xml version="1.0" standalone="no"?>
<!DOCTYPE svg PUBLIC "-//W3C//DTD SVG 20010904//EN"
 "http://www.w3.org/TR/2001/REC-SVG-20010904/DTD/svg10.dtd">
<svg version="1.0" xmlns="http://www.w3.org/2000/svg"
 width="512.000000pt" height="512.000000pt" viewBox="0 0 512.000000 512.000000"
 preserveAspectRatio="xMidYMid meet">
<metadata>
Created by potrace 1.15, written by Peter Selinger 2001-2017
</metadata>
<g transform="translate(0.000000,512.000000) scale(0.100000,-0.100000)"
fill="#333333" stroke="none">
<path d="M2456 5106 c-48 -18 -104 -62 -134 -106 -53 -79 -52 -53 -52 -1142
l0 -1008 -1027 -2 -1028 -3 -50 -23 c-61 -28 -98 -62 -133 -122 -24 -40 -27
-55 -27 -140 0 -85 3 -100 27 -140 35 -60 72 -94 133 -122 l50 -23 1027 -3
1028 -2 2 -1028 3 -1027 23 -50 c28 -61 62 -98 122 -133 40 -24 55 -27 140
-27 85 0 100 3 140 27 60 35 94 72 122 133 l23 50 3 1027 2 1028 1028 2 1027
3 50 23 c61 28 98 62 133 122 24 40 27 55 27 140 0 85 -3 100 -27 140 -35 60
-72 94 -133 122 l-50 23 -1027 3 -1028 2 -2 1028 -3 1027 -23 50 c-28 60 -62
98 -121 133 -55 32 -182 41 -245 18z"/>
</g>
</svg>
