<?xml version="1.0" standalone="no"?>
<!DOCTYPE svg PUBLIC "-//W3C//DTD SVG 20010904//EN"
 "http://www.w3.org/TR/2001/REC-SVG-20010904/DTD/svg10.dtd">
<svg version="1.0" xmlns="http://www.w3.org/2000/svg"
 width="512.000000pt" height="512.000000pt" viewBox="0 0 512.000000 512.000000"
 preserveAspectRatio="xMidYMid meet">
<metadata>
Created by potrace 1.15, written by Peter Selinger 2001-2017
</metadata>
<g transform="translate(0.000000,512.000000) scale(0.100000,-0.100000)"
fill="#000000" stroke="none">
<path d="M155 5096 c-56 -25 -110 -81 -133 -135 -23 -55 -20 -156 7 -216 18
-42 198 -226 1092 -1121 l1070 -1070 -1076 -1072 c-810 -806 -1080 -1082
-1095 -1114 -13 -28 -20 -65 -20 -109 0 -193 192 -316 368 -234 45 21 223 193
1125 1090 l1071 1066 1066 -1065 c921 -922 1072 -1068 1120 -1090 131 -61 277
-12 342 113 35 68 38 162 7 231 -15 35 -256 281 -1090 1115 l-1070 1071 1065
1057 c825 819 1069 1068 1087 1104 32 66 32 160 0 226 -59 122 -202 176 -334
127 -50 -19 -137 -102 -1121 -1082 l-1068 -1061 -1076 1076 c-840 839 -1087
1081 -1122 1096 -63 29 -150 28 -215 -3z"/>
</g>
</svg>
