<?xml version="1.0" standalone="no"?>
<!DOCTYPE svg PUBLIC "-//W3C//DTD SVG 20010904//EN"
 "http://www.w3.org/TR/2001/REC-SVG-20010904/DTD/svg10.dtd">
<svg version="1.0" xmlns="http://www.w3.org/2000/svg"
 width="512.000000pt" height="512.000000pt" viewBox="0 0 512.000000 512.000000"
 preserveAspectRatio="xMidYMid meet">
<metadata>
Created by potrace 1.15, written by Peter Selinger 2001-2017
</metadata>
<g transform="translate(0.000000,512.000000) scale(0.100000,-0.100000)"
fill="#000000" stroke="none">
<path d="M2310 5114 c-445 -53 -804 -179 -1145 -401 -181 -118 -380 -285 -411
-344 -19 -38 -18 -107 4 -149 12 -22 35 -44 62 -57 82 -42 128 -28 240 72 413
370 948 575 1500 575 1266 0 2296 -1066 2246 -2325 -13 -345 -81 -614 -234
-924 -322 -657 -947 -1112 -1687 -1228 -153 -24 -497 -24 -650 0 -465 73 -854
262 -1224 595 l-55 49 12 54 c19 84 96 262 156 363 219 364 590 619 1006 691
204 35 723 29 905 -10 305 -65 592 -229 789 -451 74 -82 108 -104 166 -104 63
0 110 27 138 80 27 54 28 91 2 145 -27 55 -214 240 -336 331 -116 86 -348 207
-479 249 -49 16 -92 30 -94 32 -2 1 21 29 52 61 105 111 189 264 233 427 25
93 30 313 10 415 -43 213 -130 374 -279 517 -191 184 -411 273 -677 273 -266
0 -486 -89 -677 -273 -149 -143 -236 -304 -279 -517 -20 -102 -15 -322 10
-415 44 -163 128 -316 233 -427 31 -32 54 -59 52 -61 -2 -1 -49 -17 -104 -35
-432 -144 -798 -466 -1006 -886 -38 -77 -69 -147 -69 -155 -1 -27 -107 146
-175 284 -146 296 -216 567 -234 916 -7 118 -11 140 -30 168 -66 92 -213 85
-266 -12 -16 -31 -17 -52 -12 -203 25 -726 374 -1410 958 -1878 369 -295 815
-482 1289 -541 161 -20 459 -20 620 0 582 72 1119 338 1526 756 381 393 610
850 701 1404 28 170 26 623 -4 795 -98 563 -351 1047 -749 1430 -386 372 -837
600 -1368 691 -97 17 -173 22 -376 24 -140 2 -271 1 -290 -1z m385 -1389 c199
-42 370 -180 461 -370 156 -325 13 -712 -321 -871 -325 -156 -712 -13 -871
321 -156 325 -13 712 322 872 126 60 270 77 409 48z"/>
</g>
</svg>
