<?xml version="1.0" standalone="no"?>
<!DOCTYPE svg PUBLIC "-//W3C//DTD SVG 20010904//EN"
 "http://www.w3.org/TR/2001/REC-SVG-20010904/DTD/svg10.dtd">
<svg version="1.0" xmlns="http://www.w3.org/2000/svg"
 width="512.000000pt" height="512.000000pt" viewBox="0 0 512.000000 512.000000"
 preserveAspectRatio="xMidYMid meet">
<metadata>
Created by potrace 1.15, written by Peter Selinger 2001-2017
</metadata>
<g transform="translate(0.000000,512.000000) scale(0.100000,-0.100000)"
fill="#000000" stroke="none">
<path d="M2445 3946 c-71 -34 -2394 -2358 -2424 -2426 -43 -95 -18 -234 55
-302 73 -68 202 -89 294 -47 35 15 282 257 1117 1092 l1073 1072 1072 -1072
c835 -834 1083 -1077 1118 -1092 92 -42 221 -21 294 47 73 68 98 207 55 302
-30 68 -2353 2392 -2424 2426 -69 33 -161 33 -230 0z"/>
</g>
</svg>
