<?xml version="1.0" standalone="no"?>
<!DOCTYPE svg PUBLIC "-//W3C//DTD SVG 20010904//EN"
 "http://www.w3.org/TR/2001/REC-SVG-20010904/DTD/svg10.dtd">
<svg version="1.0" xmlns="http://www.w3.org/2000/svg"
 width="512.000000pt" height="512.000000pt" viewBox="0 0 512.000000 512.000000"
 preserveAspectRatio="xMidYMid meet">
<metadata>
Created by potrace 1.15, written by Peter Selinger 2001-2017
</metadata>
<g transform="translate(0.000000,512.000000) scale(0.100000,-0.100000)"
fill="#000000" stroke="none">
<path d="M2301 5105 c-361 -57 -693 -227 -953 -488 -217 -218 -362 -471 -441
-767 -42 -158 -52 -241 -51 -455 0 -177 4 -215 27 -326 92 -435 331 -801 685
-1049 l82 -58 -57 -23 c-271 -107 -563 -293 -798 -507 -306 -278 -561 -665
-700 -1062 -37 -107 -95 -321 -95 -352 0 -17 17 -18 215 -18 164 0 217 3 219
13 2 6 21 68 41 137 100 344 284 651 545 911 344 344 752 547 1245 621 118 17
472 17 590 0 493 -74 901 -277 1245 -621 261 -260 445 -567 545 -911 20 -69
39 -131 41 -137 2 -10 55 -13 219 -13 199 0 215 1 215 18 0 9 -15 78 -34 152
-184 730 -686 1355 -1348 1677 -79 39 -171 80 -205 93 l-63 22 83 58 c353 248
592 614 684 1049 23 111 27 149 27 326 1 267 -26 422 -111 640 -224 571 -736
979 -1343 1070 -122 18 -391 18 -509 0z m380 -426 c545 -55 987 -442 1120
-979 27 -109 37 -356 20 -468 -79 -499 -436 -907 -916 -1043 -504 -143 -1041
39 -1358 460 -133 176 -214 367 -248 583 -17 112 -7 359 20 468 59 239 176
444 349 616 205 203 475 334 753 363 120 12 145 12 260 0z"/>
</g>
</svg>
