<svg xmlns="http://www.w3.org/2000/svg" xml:space="preserve" width="709" height="361" viewBox="0 0 709 361"><defs><clipPath id="a" clipPathUnits="userSpaceOnUse"><path d="M0 361h709V0H0Z"/></clipPath></defs><g clip-path="url(#a)" transform="matrix(1 0 0 -1 0 361)"><path d="M0 0c-6.6-5.8-13.8-8.5-22.4-8.5-10.4.1-17.6 3-23.8 9.6-2.6 2.8-6.4 6.7-8.4 8.9-8.3 8.5-20.7 5.5-27.1-6.5-2.2-4.1-2.2-4.3-2.5-73.3l-.3-69.3h-14.9v86.8c0 75 .2 87.6 1.5 92.7 6.7 25.7 29.9 43 56.3 41.9 4-.1 9.8-1 13-1.9C7.7 69.9 24.9 21.8 0 0m-113.6-31.3-.3-65.3-3-7.2c-9.2-22-28.4-35.3-51.2-35.3-16.3 0-28.4 5-39.9 16.6-8 8-12.4 15.8-14.9 26.8-1.4 5.8-1.5 15.5-1.3 70.4l.3 63.7 2.4 6.2c10.6 28.7 39.4 43.8 68.1 35.7 18.7-5.3 33.7-20.9 38.5-40.1 1.4-5.3 1.5-15.1 1.3-71.5M-237.9-5.1c0-82.1-.1-87.9-1.8-93.5-6-19.4-20.8-34-39.7-39-7.1-1.9-21-1.9-28 0-18.6 4.9-34.1 20.1-39.4 38.5-5.2 18.1-.3 38.6 12.3 52.3 11 11.9 22.2 17 40.8 18.6 8.2.7 11.7 1.6 16.8 4 7.4 3.4 15.2 10.7 18.6 17.2 4.6 9 4.9 12.2 4.9 52.2V83l7.8-.3 7.7-.3zm-124.5-134h-111v87.3c0 73 .3 88.1 1.5 92.7 5.4 20.2 22 36.1 42.5 40.4 9 1.9 20.4 1.2 29-1.8 19.6-6.8 33.7-23.4 37.1-43.6.5-3 .9-43.6.9-90.2zM88.2-1.6C77.9 53.4 38.5 98.8-14.1 116.3c-4.5 1.5-12.4 3.7-17.5 4.9l-9.3 2.1-197.5.2c-108.6.1-198.6 0-200-.2-17.7-2.6-27.4-5-38.8-9.5-49.9-19.8-85.7-63.5-95.2-116.2-3.5-19.5-2.2-48 3-66.2 15-52.4 55.7-92.9 107.7-107.1 20.2-5.5 15.1-5.4 220.3-5.3 111.5 0 192.6.4 197 1 66.3 8.3 118 56.2 132.2 122.3 3 13.8 3.2 41.5.4 56.1" style="fill:#fff;fill-opacity:1;fill-rule:nonzero;stroke:none" transform="translate(594.4 212.1)"/><path d="M0 0c-6.6-5.8-13.8-8.5-22.4-8.5-10.4.1-17.6 3-23.8 9.6-2.6 2.8-6.4 6.7-8.4 8.9-8.3 8.5-20.7 5.5-27.1-6.5-2.2-4.1-2.2-4.3-2.5-73.3l-.3-69.3h-14.9v86.8c0 75 .2 87.6 1.5 92.7 6.7 25.7 29.9 43 56.3 41.9 4-.1 9.8-1 13-1.9C7.7 69.9 24.9 21.8 0 0" style="fill:#000;fill-opacity:1;fill-rule:nonzero;stroke:none" transform="translate(594.4 212.1)"/><path d="M0 0c-7.8-16.4-25.8-26-43.1-22.8-26.7 4.9-41.6 33.2-30.2 57.4 5.2 10.9 17.7 20.6 29.1 22.6 11 1.9 20.8-.3 30.6-6.7 6.3-4 10.4-9 14.1-16.9 2.4-5.2 2.7-7 2.7-16.3C3.2 7.6 3 6.3 0 0m17.2 86.6c-4.8 19.2-19.8 34.8-38.5 40.1-28.7 8.1-57.5-7-68.1-35.7l-2.4-6.2-.3-63.7c-.2-54.9-.1-64.6 1.3-70.4 2.5-11 6.9-18.8 14.9-26.8C-64.4-87.7-52.3-92.7-36-92.7c22.8 0 42 13.3 51.2 35.3l3 7.2.3 65.3c.2 56.4.1 66.2-1.3 71.5" style="fill:#000;fill-opacity:1;fill-rule:nonzero;stroke:none" transform="translate(462.3 165.7)"/><path d="M0 0c-21.2 1.5-36.7 13.6-36.6 28.8.1 10.4 11.4 21.4 26.1 25.3 6.9 1.9 21.9 2 28.4.2C34.6 49.8 44.4 40 44.4 27.8 44.4 11.1 24-1.7 0 0m51.2 194.5-7.8.3V157c0-40-.3-43.2-4.9-52.2-3.4-6.5-11.2-13.8-18.6-17.2-5.1-2.4-8.6-3.3-16.8-4C-15.5 82-26.7 76.9-37.7 65-50.3 51.3-55.2 30.8-50 12.7c5.3-18.4 20.8-33.6 39.4-38.5 7-1.9 20.9-1.9 28 0 18.9 5 33.7 19.6 39.7 39 1.7 5.6 1.8 11.4 1.8 93.5v87.5z" style="fill:#000;fill-opacity:1;fill-rule:nonzero;stroke:none" transform="translate(297.6 100.3)"/><path d="M0 0c-12.9-26.2-46.1-31.4-66-10.3-2.9 3.1-6.5 8.2-7.9 11.3-2.3 5-2.7 7.1-2.7 15.8-.1 13 2.2 19.1 10.4 27.8 6.3 6.8 12.5 10.5 21 12.4C-27.4 61-8.4 51.5 0 34.5c3.1-6.3 3.3-7.3 3.3-17.2C3.3 7.4 3.1 6.4 0 0m18.9 82.3c-3.4 20.2-17.5 36.8-37.1 43.6-8.6 3-20 3.7-29 1.8-20.5-4.3-37.1-20.2-42.5-40.4-1.2-4.6-1.5-19.7-1.5-92.7v-87.3h111v84.8c0 46.6-.4 87.2-.9 90.2" style="fill:#000;fill-opacity:1;fill-rule:nonzero;stroke:none" transform="translate(212.2 165.7)"/><path d="M0 0c0-9.9-.2-10.9-3.3-17.3-12.9-26.2-46.1-31.4-66-10.3-2.9 3.1-6.5 8.2-7.9 11.3-2.3 5-2.7 7.1-2.7 15.8-.1 13 2.2 19.1 10.4 27.8 6.3 6.8 12.5 10.5 21 12.4 17.8 4 36.8-5.5 45.2-22.5C-.2 10.9 0 9.9 0 0" style="fill:#fff;fill-opacity:1;fill-rule:nonzero;stroke:none" transform="translate(215.5 183)"/><path d="M0 0c0-16.7-20.4-29.5-44.4-27.8C-65.6-26.3-81.1-14.2-81 1c.1 10.4 11.4 21.4 26.1 25.3 6.9 1.9 21.9 2 28.4.2C-9.8 22 0 12.2 0 0" style="fill:#fff;fill-opacity:1;fill-rule:nonzero;stroke:none" transform="translate(342 128.1)"/><path d="M0 0c0-9.7-.2-11-3.2-17.3-7.8-16.4-25.8-26-43.1-22.8C-73-35.2-87.9-6.9-76.5 17.3c5.2 10.9 17.7 20.6 29.1 22.6 11 1.9 20.8-.3 30.6-6.7 6.3-4 10.4-9 14.1-16.9C-.3 11.1 0 9.3 0 0" style="fill:#fff;fill-opacity:1;fill-rule:nonzero;stroke:none" transform="translate(465.5 183)"/></g></svg>