<svg xmlns="http://www.w3.org/2000/svg" width="709.000000pt" height="361.000000pt" version="1.0" viewBox="0 0 709.000000 361.000000"><path d="M156 25.6c-17.7 2.6-27.4 5-38.8 9.5C67.3 54.9 31.5 98.6 22 151.3c-3.5 19.5-2.2 48 3 66.2 15 52.4 55.7 92.9 107.7 107.1 20.2 5.5 15.1 5.4 220.3 5.3 111.5 0 192.6-.4 197-1 66.3-8.3 118-56.2 132.2-122.3 3-13.8 3.2-41.5.4-56.1-10.3-55-49.7-100.4-102.3-117.9-4.5-1.5-12.4-3.7-17.5-4.9l-9.3-2.1-197.5-.2c-108.6-.1-198.6 0-200 .2zm38 43.8c19.6 6.8 33.7 23.4 37.1 43.6.5 3 .9 43.6.9 90.2V288H121v-87.3c0-73 .3-88.1 1.5-92.7 5.4-20.2 22-36.1 42.5-40.4 9-1.9 20.4-1.2 29 1.8zM356.5 154c0 82.1-.1 87.9-1.8 93.5-6 19.4-20.8 34-39.7 39-7.1 1.9-21 1.9-28 0-18.6-4.9-34.1-20.1-39.4-38.5-5.2-18.1-.3-38.6 12.3-52.3 11-11.9 22.2-17 40.8-18.6 8.2-.7 11.7-1.6 16.8-4 7.4-3.4 15.2-10.7 18.6-17.2 4.6-9 4.9-12.2 4.9-52.2V65.9l7.8.3 7.7.3V154zM441 68.6c18.7 5.3 33.7 20.9 38.5 40.1 1.4 5.3 1.5 15.1 1.3 71.5l-.3 65.3-3 7.2c-9.2 22-28.4 35.3-51.2 35.3-16.3 0-28.4-5-39.9-16.6-8-8-12.4-15.8-14.9-26.8-1.4-5.8-1.5-15.5-1.3-70.4l.3-63.7 2.4-6.2c10.6-28.7 39.4-43.8 68.1-35.7zm124.8-.1c36.3 10.5 53.5 58.6 28.6 80.4-6.6 5.8-13.8 8.5-22.4 8.5-10.4-.1-17.6-3-23.8-9.6-2.6-2.8-6.4-6.7-8.4-8.9-8.3-8.5-20.7-5.5-27.1 6.5-2.2 4.1-2.2 4.3-2.5 73.3l-.3 69.3H495v-86.8c0-75 .2-87.6 1.5-92.7 6.7-25.7 29.9-43 56.3-41.9 4 .1 9.8 1 13 1.9z"/><path d="M167 138.3c-8.5 1.9-14.7 5.6-21 12.4-8.2 8.7-10.5 14.8-10.4 27.8 0 8.7.4 10.8 2.7 15.8 1.4 3.1 5 8.2 7.9 11.3 19.9 21.1 53.1 15.9 66-10.3 3.1-6.4 3.3-7.4 3.3-17.3s-.2-10.9-3.3-17.2c-8.4-17-27.4-26.5-45.2-22.5zM287.1 206.6c-14.7 3.9-26 14.9-26.1 25.3-.1 15.2 15.4 27.3 36.6 28.8 24 1.7 44.4-11.1 44.4-27.8 0-12.2-9.8-22-26.5-26.5-6.5-1.8-21.5-1.7-28.4.2zM418.1 138.1c-11.4 2-23.9 11.7-29.1 22.6-11.4 24.2 3.5 52.5 30.2 57.4 17.3 3.2 35.3-6.4 43.1-22.8 3-6.3 3.2-7.6 3.2-17.3 0-9.3-.3-11.1-2.7-16.3-3.7-7.9-7.8-12.9-14.1-16.9-9.8-6.4-19.6-8.6-30.6-6.7z"/></svg>